<?xml version="1.0" encoding="UTF-8"?>
<!DOCTYPE svg PUBLIC "-//W3C//DTD SVG 1.1//EN" "http://www.w3.org/Graphics/SVG/1.1/DTD/svg11.dtd">
<svg xmlns="http://www.w3.org/2000/svg" version="1.1" width="200px" height="200px" style="shape-rendering:geometricPrecision; text-rendering:geometricPrecision; image-rendering:optimizeQuality; fill-rule:evenodd; clip-rule:evenodd" xmlns:xlink="http://www.w3.org/1999/xlink">
<g><path style="opacity:1" fill="#533c24" d="M -0.5,-0.5 C 66.1667,-0.5 132.833,-0.5 199.5,-0.5C 199.5,66.1667 199.5,132.833 199.5,199.5C 132.833,199.5 66.1667,199.5 -0.5,199.5C -0.5,132.833 -0.5,66.1667 -0.5,-0.5 Z"/></g>
<g><path style="opacity:1" fill="#4b3c2a" d="M 127.5,57.5 C 126.326,55.5591 124.659,54.0591 122.5,53C 106.833,52.3333 91.1667,52.3333 75.5,53C 73.9512,54.214 72.7845,55.714 72,57.5C 71.2811,61.1454 70.7811,64.8121 70.5,68.5C 60.8104,68.1682 51.1437,68.5016 41.5,69.5C 41.1924,70.3081 40.6924,70.9747 40,71.5C 39.3333,95.5 39.3333,119.5 40,143.5C 40.7172,144.044 41.2172,144.711 41.5,145.5C 41.6107,146.117 41.944,146.617 42.5,147C 79.8318,147.5 117.165,147.667 154.5,147.5C 118.15,148.182 81.6504,148.849 45,149.5C 42.551,149.139 40.2177,148.472 38,147.5C 37.3333,122.5 37.3333,97.5 38,72.5C 38.0361,69.0664 39.5361,66.7331 42.5,65.5C 43.7412,66.0372 44.9079,66.7039 46,67.5C 53.0293,65.9447 60.196,64.9447 67.5,64.5C 68.5228,60.8872 69.3562,57.2206 70,53.5C 71.4907,51.9963 73.324,51.1629 75.5,51C 91.5,50.3333 107.5,50.3333 123.5,51C 126.693,52.0255 128.026,54.1922 127.5,57.5 Z"/></g>
<g><path style="opacity:1" fill="#030101" d="M 127.5,57.5 C 127.5,59.5 127.5,61.5 127.5,63.5C 127.263,64.791 127.596,65.791 128.5,66.5C 137.446,68.3112 146.78,69.1446 156.5,69C 157.333,69.8333 158.167,70.6667 159,71.5C 159.667,95.5 159.667,119.5 159,143.5C 157.955,144.373 157.122,145.373 156.5,146.5C 118.124,146.821 79.7904,146.488 41.5,145.5C 41.2172,144.711 40.7172,144.044 40,143.5C 39.3333,119.5 39.3333,95.5 40,71.5C 40.6924,70.9747 41.1924,70.3081 41.5,69.5C 51.1437,68.5016 60.8104,68.1682 70.5,68.5C 70.7811,64.8121 71.2811,61.1454 72,57.5C 72.7845,55.714 73.9512,54.214 75.5,53C 91.1667,52.3333 106.833,52.3333 122.5,53C 124.659,54.0591 126.326,55.5591 127.5,57.5 Z"/></g>
<g><path style="opacity:1" fill="#403529" d="M 79.5,60.5 C 92.6603,59.3396 105.994,59.173 119.5,60C 120.337,61.0113 120.67,62.1779 120.5,63.5C 119.078,63.2504 118.078,62.417 117.5,61C 104.838,60.5001 92.1711,60.3334 79.5,60.5 Z"/></g>
<g><path style="opacity:1" fill="#533c1d" d="M 127.5,63.5 C 138.187,63.168 148.854,63.5013 159.5,64.5C 149.008,65.1667 138.674,65.8334 128.5,66.5C 127.596,65.791 127.263,64.791 127.5,63.5 Z"/></g>
<g><path style="opacity:1" fill="#4d3c28" d="M 79.5,63.5 C 79.5,65.1667 79.5,66.8333 79.5,68.5C 83.0544,68.3611 85.8877,69.6944 88,72.5C 90.5146,71.8853 92.848,70.8853 95,69.5C 95.4935,71.1341 95.6602,72.8008 95.5,74.5C 100.336,74.7339 105.003,75.7339 109.5,77.5C 112.196,75.5602 113.529,76.2268 113.5,79.5C 114.5,79.5 115.5,79.5 116.5,79.5C 117.371,82.7109 119.371,85.0443 122.5,86.5C 124.371,89.2341 125.371,92.2341 125.5,95.5C 114.804,76.4343 100.138,72.601 81.5,84C 73.81,91.5649 70.81,100.732 72.5,111.5C 71.039,103.201 71.539,94.8675 74,86.5C 77.2638,85.0633 80.0971,83.0633 82.5,80.5C 83.6888,79.5713 85.0222,79.238 86.5,79.5C 86.7394,77.5328 86.4061,75.6995 85.5,74C 82.854,73.5026 80.1873,73.3359 77.5,73.5C 77.4015,76.1038 76.2349,78.1038 74,79.5C 72.7202,79.3865 71.8869,78.7199 71.5,77.5C 63.5277,76.5023 55.5277,76.169 47.5,76.5C 47.5,76.1667 47.5,75.8333 47.5,75.5C 56.1731,75.6664 64.8397,75.4998 73.5,75C 74.6667,73.8333 75.8333,72.6667 77,71.5C 77.0984,68.4776 77.9318,65.8109 79.5,63.5 Z"/></g>
<g><path style="opacity:1" fill="#453626" d="M 145.5,83.5 C 143.164,81.6093 140.498,81.1093 137.5,82C 134.594,85.6611 134.927,88.9945 138.5,92C 141.065,92.6089 143.399,92.1089 145.5,90.5C 145.762,91.9778 145.429,93.3112 144.5,94.5C 141.557,93.7565 138.557,93.2565 135.5,93C 133.266,88.6556 132.933,84.1556 134.5,79.5C 137.898,79.1796 141.232,79.513 144.5,80.5C 145.127,81.4168 145.461,82.4168 145.5,83.5 Z"/></g>
<g><path style="opacity:1" fill="#070302" d="M 145.5,83.5 C 146.833,85.8333 146.833,88.1667 145.5,90.5C 143.399,92.1089 141.065,92.6089 138.5,92C 134.927,88.9945 134.594,85.6611 137.5,82C 140.498,81.1093 143.164,81.6093 145.5,83.5 Z"/></g>
<g><path style="opacity:1" fill="#533d24" d="M 79.5,61.5 C 91.1714,61.3335 102.838,61.5001 114.5,62C 115.025,62.6924 115.692,63.1924 116.5,63.5C 117.172,66.8967 118.005,70.2301 119,73.5C 120.918,74.5418 122.751,75.7085 124.5,77C 131.833,77.3333 139.167,77.6667 146.5,78C 147.563,79.1882 148.897,79.6882 150.5,79.5C 151.078,83.935 149.411,85.2683 145.5,83.5C 145.461,82.4168 145.127,81.4168 144.5,80.5C 141.232,79.513 137.898,79.1796 134.5,79.5C 132.933,84.1556 133.266,88.6556 135.5,93C 138.557,93.2565 141.557,93.7565 144.5,94.5C 145.429,93.3112 145.762,91.9778 145.5,90.5C 147.144,90.2865 148.644,90.6198 150,91.5C 150.661,106.63 150.494,121.63 149.5,136.5C 142.273,138.04 134.94,138.707 127.5,138.5C 100.836,137.5 74.1693,137.5 47.5,138.5C 47.5,117.833 47.5,97.1667 47.5,76.5C 55.5277,76.169 63.5277,76.5023 71.5,77.5C 71.8869,78.7199 72.7202,79.3865 74,79.5C 76.2349,78.1038 77.4015,76.1038 77.5,73.5C 80.1873,73.3359 82.854,73.5026 85.5,74C 86.4061,75.6995 86.7394,77.5328 86.5,79.5C 85.0222,79.238 83.6888,79.5713 82.5,80.5C 80.0971,83.0633 77.2638,85.0633 74,86.5C 71.539,94.8675 71.039,103.201 72.5,111.5C 75.3458,117.682 79.3458,123.015 84.5,127.5C 84.5,128.5 84.5,129.5 84.5,130.5C 88.8083,131.664 93.1416,132.998 97.5,134.5C 103.188,132.878 108.688,133.211 114,135.5C 123.77,134.398 133.604,133.398 143.5,132.5C 132.581,131.468 121.914,130.468 111.5,129.5C 111.973,128.094 112.973,127.427 114.5,127.5C 116.167,127.5 117.833,127.5 119.5,127.5C 119.351,126.448 119.517,125.448 120,124.5C 123.864,121.129 125.697,117.129 125.5,112.5C 126.716,106.812 126.716,101.145 125.5,95.5C 125.371,92.2341 124.371,89.2341 122.5,86.5C 119.371,85.0443 117.371,82.7109 116.5,79.5C 115.5,79.5 114.5,79.5 113.5,79.5C 113.529,76.2268 112.196,75.5602 109.5,77.5C 105.003,75.7339 100.336,74.7339 95.5,74.5C 95.6602,72.8008 95.4935,71.1341 95,69.5C 92.848,70.8853 90.5146,71.8853 88,72.5C 85.8877,69.6944 83.0544,68.3611 79.5,68.5C 79.5,66.8333 79.5,65.1667 79.5,63.5C 79.5,62.8333 79.5,62.1667 79.5,61.5 Z"/></g>
<g><path style="opacity:1" fill="#070302" d="M 125.5,95.5 C 126.716,101.145 126.716,106.812 125.5,112.5C 122.635,118.04 118.968,123.04 114.5,127.5C 112.973,127.427 111.973,128.094 111.5,129.5C 102.175,132.639 93.1749,131.973 84.5,127.5C 79.3458,123.015 75.3458,117.682 72.5,111.5C 70.81,100.732 73.81,91.5649 81.5,84C 100.138,72.601 114.804,76.4343 125.5,95.5 Z"/></g>
<g><path style="opacity:1" fill="#4b3b28" d="M 116.5,95.5 C 115.504,95.4142 114.671,95.7476 114,96.5C 113.727,94.6711 112.893,93.1711 111.5,92C 106.594,89.5859 101.428,87.7526 96,86.5C 91.826,88.7178 87.9927,91.3844 84.5,94.5C 84.1835,98.9413 83.1835,103.108 81.5,107C 82.2546,109.175 83.088,111.341 84,113.5C 86.3342,116.771 88.8342,119.771 91.5,122.5C 82.712,117.93 78.8786,110.596 80,100.5C 85.5932,85.2249 95.7598,81.0582 110.5,88C 113.118,90.1057 115.118,92.6057 116.5,95.5 Z"/></g>
<g><path style="opacity:1" fill="#533d24" d="M 116.5,95.5 C 117.338,95.8417 117.672,96.5084 117.5,97.5C 117.5,102.167 117.5,106.833 117.5,111.5C 112.221,123.314 103.555,126.98 91.5,122.5C 88.8342,119.771 86.3342,116.771 84,113.5C 83.088,111.341 82.2546,109.175 81.5,107C 83.1835,103.108 84.1835,98.9413 84.5,94.5C 87.9927,91.3844 91.826,88.7178 96,86.5C 101.428,87.7526 106.594,89.5859 111.5,92C 112.893,93.1711 113.727,94.6711 114,96.5C 114.671,95.7476 115.504,95.4142 116.5,95.5 Z"/></g>
<g><path style="opacity:1" fill="#4c3b2a" d="M 79.5,61.5 C 79.5,61.1667 79.5,60.8333 79.5,60.5C 92.1711,60.3334 104.838,60.5001 117.5,61C 118.078,62.417 119.078,63.2504 120.5,63.5C 119.861,68.3836 121.527,72.217 125.5,75C 134.494,75.4998 143.494,75.6664 152.5,75.5C 152.831,97.0065 152.497,118.34 151.5,139.5C 116.663,139.832 81.996,139.498 47.5,138.5C 74.1693,137.5 100.836,137.5 127.5,138.5C 134.94,138.707 142.273,138.04 149.5,136.5C 150.494,121.63 150.661,106.63 150,91.5C 148.644,90.6198 147.144,90.2865 145.5,90.5C 146.833,88.1667 146.833,85.8333 145.5,83.5C 149.411,85.2683 151.078,83.935 150.5,79.5C 148.897,79.6882 147.563,79.1882 146.5,78C 139.167,77.6667 131.833,77.3333 124.5,77C 122.751,75.7085 120.918,74.5418 119,73.5C 118.005,70.2301 117.172,66.8967 116.5,63.5C 115.692,63.1924 115.025,62.6924 114.5,62C 102.838,61.5001 91.1714,61.3335 79.5,61.5 Z"/></g>
<g><path style="opacity:1" fill="#423723" d="M 117.5,97.5 C 120.167,102.167 120.167,106.833 117.5,111.5C 117.5,106.833 117.5,102.167 117.5,97.5 Z"/></g>
<g><path style="opacity:1" fill="#483a28" d="M 125.5,112.5 C 125.697,117.129 123.864,121.129 120,124.5C 119.517,125.448 119.351,126.448 119.5,127.5C 117.833,127.5 116.167,127.5 114.5,127.5C 118.968,123.04 122.635,118.04 125.5,112.5 Z"/></g>
<g><path style="opacity:1" fill="#4e3d27" d="M 84.5,127.5 C 93.1749,131.973 102.175,132.639 111.5,129.5C 121.914,130.468 132.581,131.468 143.5,132.5C 133.604,133.398 123.77,134.398 114,135.5C 108.688,133.211 103.188,132.878 97.5,134.5C 93.1416,132.998 88.8083,131.664 84.5,130.5C 84.5,129.5 84.5,128.5 84.5,127.5 Z"/></g>
<g><path style="opacity:1" fill="#2e231a" d="M 47.5,75.5 C 47.5,75.8333 47.5,76.1667 47.5,76.5C 47.5,97.1667 47.5,117.833 47.5,138.5C 81.996,139.498 116.663,139.832 151.5,139.5C 116.671,140.498 81.6706,140.832 46.5,140.5C 46.1693,118.66 46.5027,96.9936 47.5,75.5 Z"/></g>
<g><path style="opacity:1" fill="#24170c" d="M 41.5,145.5 C 79.7904,146.488 118.124,146.821 156.5,146.5C 156.158,147.338 155.492,147.672 154.5,147.5C 117.165,147.667 79.8318,147.5 42.5,147C 41.944,146.617 41.6107,146.117 41.5,145.5 Z"/></g>
</svg>
