<svg width="200" height="200" viewBox="0 0 200 200" fill="none" xmlns="http://www.w3.org/2000/svg">
<rect width="200" height="200" fill="#533D24"/>
<path d="M67.7 152V150H76.8V14H67.7V12H122.7V40.9H120.7C120.7 35.5 120.133 30.7667 119 26.7C117.867 22.6333 115.967 19.5 113.3 17.3C110.7 15.1 107.067 14 102.4 14H91.9V80.9H113.4V68.9H115.4V94.7H113.4V82.9H91.9V150H101.9C106.5 150 110.167 148.867 112.9 146.6C115.633 144.267 117.6 141.067 118.8 137C120.067 132.933 120.7 128.2 120.7 122.8H122.7V152H67.7Z" fill="black"/>
<rect x="18" y="97" width="165" height="24" fill="#533D24"/>
<path d="M60.512 114V113.504H61.232V103.296H60.512V102.8H62.92V103.296H62.192V113.504H63.12C63.2907 113.504 63.4267 113.451 63.528 113.344C63.6347 113.237 63.712 113.059 63.76 112.808C63.8133 112.557 63.84 112.216 63.84 111.784H64.336V114H60.512ZM67.2845 114.176C66.9965 114.176 66.7272 114.08 66.4765 113.888C66.2258 113.691 66.0072 113.405 65.8205 113.032C65.6338 112.653 65.4872 112.192 65.3805 111.648C65.2792 111.104 65.2285 110.483 65.2285 109.784C65.2285 109.021 65.2818 108.373 65.3885 107.84C65.5005 107.301 65.6525 106.864 65.8445 106.528C66.0365 106.192 66.2552 105.947 66.5005 105.792C66.7512 105.637 67.0125 105.56 67.2845 105.56C67.5512 105.56 67.8072 105.637 68.0525 105.792C68.2978 105.947 68.5165 106.192 68.7085 106.528C68.9058 106.864 69.0605 107.301 69.1725 107.84C69.2898 108.373 69.3485 109.021 69.3485 109.784C69.3485 110.483 69.2952 111.104 69.1885 111.648C69.0818 112.192 68.9325 112.653 68.7405 113.032C68.5538 113.405 68.3352 113.691 68.0845 113.888C67.8338 114.08 67.5672 114.176 67.2845 114.176ZM67.2845 113.664C67.5885 113.664 67.8418 113.347 68.0445 112.712C68.2472 112.077 68.3485 111.101 68.3485 109.784C68.3485 108.483 68.2472 107.539 68.0445 106.952C67.8418 106.36 67.5885 106.064 67.2845 106.064C66.9698 106.064 66.7112 106.36 66.5085 106.952C66.3112 107.539 66.2125 108.483 66.2125 109.784C66.2125 111.101 66.3112 112.077 66.5085 112.712C66.7112 113.347 66.9698 113.664 67.2845 113.664ZM70.0125 114V113.504H70.8285V106.12H70.0125V105.624H71.7245L71.7645 106.448C71.7752 106.389 71.8258 106.288 71.9165 106.144C72.0125 106 72.1432 105.867 72.3085 105.744C72.4792 105.621 72.6818 105.56 72.9165 105.56C73.1725 105.56 73.3805 105.651 73.5405 105.832C73.7005 106.008 73.8178 106.251 73.8925 106.56C73.9672 106.864 74.0045 107.205 74.0045 107.584C74.0045 107.835 73.9645 108.024 73.8845 108.152C73.8045 108.275 73.6898 108.336 73.5405 108.336C73.4072 108.336 73.2978 108.285 73.2125 108.184C73.1325 108.077 73.0925 107.925 73.0925 107.728C73.0925 107.611 73.1112 107.515 73.1485 107.44C73.1858 107.365 73.2205 107.285 73.2525 107.2C73.2845 107.109 73.3005 106.992 73.3005 106.848C73.3005 106.592 73.2552 106.408 73.1645 106.296C73.0738 106.184 72.9538 106.128 72.8045 106.128C72.6018 106.128 72.4232 106.219 72.2685 106.4C72.1138 106.576 71.9938 106.803 71.9085 107.08C71.8285 107.357 71.7885 107.637 71.7885 107.92V113.504H72.6125V114H70.0125ZM76.6816 114.168C76.3083 114.168 75.991 114.048 75.7296 113.808C75.4736 113.563 75.2683 113.235 75.1136 112.824C74.959 112.408 74.847 111.939 74.7776 111.416C74.7136 110.893 74.6816 110.352 74.6816 109.792C74.6816 109.093 74.7323 108.48 74.8336 107.952C74.935 107.419 75.0763 106.976 75.2576 106.624C75.4443 106.267 75.6576 106 75.8976 105.824C76.1376 105.648 76.399 105.56 76.6816 105.56C77.007 105.56 77.2816 105.664 77.5056 105.872C77.735 106.075 77.919 106.349 78.0576 106.696C78.2016 107.037 78.3056 107.419 78.3696 107.84C78.4336 108.261 78.4656 108.688 78.4656 109.12C78.4656 109.232 78.4656 109.344 78.4656 109.456C78.4656 109.563 78.463 109.667 78.4576 109.768H75.5536V109.272H77.5056C77.5056 108.637 77.4816 108.08 77.4336 107.6C77.3856 107.115 77.3003 106.736 77.1776 106.464C77.0603 106.192 76.895 106.056 76.6816 106.056C76.4736 106.056 76.2923 106.189 76.1376 106.456C75.9883 106.723 75.871 107.117 75.7856 107.64C75.7056 108.157 75.6656 108.797 75.6656 109.56C75.6656 110.109 75.679 110.632 75.7056 111.128C75.7376 111.619 75.791 112.053 75.8656 112.432C75.9456 112.805 76.0576 113.101 76.2016 113.32C76.3456 113.533 76.535 113.64 76.7696 113.64C77.0896 113.64 77.335 113.544 77.5056 113.352C77.6816 113.16 77.8016 112.973 77.8656 112.792L78.2976 113.024C78.207 113.328 78.015 113.595 77.7216 113.824C77.4283 114.053 77.0816 114.168 76.6816 114.168ZM79.2019 114V113.504H79.9699V106.12H79.2019V105.624H80.9139V106.568C80.9299 106.461 80.9859 106.331 81.0819 106.176C81.1832 106.016 81.3299 105.875 81.5219 105.752C81.7139 105.629 81.9512 105.568 82.2339 105.568C82.5325 105.568 82.7672 105.645 82.9379 105.8C83.1139 105.949 83.2392 106.117 83.3139 106.304C83.3939 106.485 83.4392 106.619 83.4499 106.704C83.4819 106.549 83.5619 106.384 83.6899 106.208C83.8179 106.032 83.9885 105.883 84.2019 105.76C84.4152 105.632 84.6605 105.568 84.9379 105.568C85.3965 105.568 85.7299 105.765 85.9379 106.16C86.1512 106.549 86.2579 107.024 86.2579 107.584V113.504H86.9939V114H84.6179V113.504H85.2979V108.504C85.2979 108.04 85.2845 107.64 85.2579 107.304C85.2365 106.968 85.1752 106.709 85.0739 106.528C84.9779 106.347 84.8205 106.256 84.6019 106.256C84.3672 106.256 84.1752 106.352 84.0259 106.544C83.8765 106.736 83.7645 106.981 83.6899 107.28C83.6205 107.579 83.5805 107.883 83.5699 108.192V113.504H84.2579V114H81.9539V113.504H82.6179V108.504C82.6179 107.805 82.5832 107.256 82.5139 106.856C82.4445 106.456 82.2419 106.256 81.9059 106.256C81.6765 106.256 81.4899 106.355 81.3459 106.552C81.2019 106.744 81.0979 106.992 81.0339 107.296C80.9699 107.6 80.9352 107.912 80.9299 108.232V113.504H81.5939V114H79.2019ZM89.9579 114V113.504H90.7099V103.296H89.9579V102.8H92.4299V103.296H91.6699V113.504H92.4299V114H89.9579ZM93.1531 118V117.504H93.9531V106.12H93.1531V105.624H94.9131V106.528C94.9451 106.427 95.0065 106.301 95.0971 106.152C95.1878 106.003 95.3131 105.869 95.4731 105.752C95.6385 105.629 95.8385 105.568 96.0731 105.568C96.3718 105.568 96.6465 105.712 96.8971 106C97.1531 106.283 97.3585 106.739 97.5131 107.368C97.6678 107.992 97.7451 108.821 97.7451 109.856C97.7451 110.901 97.6651 111.739 97.5051 112.368C97.3451 112.997 97.1291 113.453 96.8571 113.736C96.5851 114.019 96.2838 114.16 95.9531 114.16C95.7398 114.16 95.5585 114.104 95.4091 113.992C95.2651 113.875 95.1531 113.741 95.0731 113.592C94.9931 113.437 94.9451 113.309 94.9291 113.208V117.504H95.7291V118H93.1531ZM95.8171 113.528C95.9825 113.528 96.1238 113.44 96.2411 113.264C96.3585 113.083 96.4545 112.832 96.5291 112.512C96.6091 112.187 96.6678 111.8 96.7051 111.352C96.7425 110.904 96.7611 110.413 96.7611 109.88C96.7611 109.352 96.7425 108.869 96.7051 108.432C96.6678 107.989 96.6118 107.608 96.5371 107.288C96.4678 106.963 96.3745 106.712 96.2571 106.536C96.1451 106.355 96.0118 106.264 95.8571 106.264C95.6598 106.264 95.4945 106.36 95.3611 106.552C95.2331 106.739 95.1345 106.965 95.0651 107.232C95.0011 107.493 94.9558 107.739 94.9291 107.968V111.456C94.9451 111.771 94.9825 112.088 95.0411 112.408C95.1051 112.723 95.1985 112.989 95.3211 113.208C95.4491 113.421 95.6145 113.528 95.8171 113.528ZM100.301 114.176C100.029 114.176 99.8206 114.141 99.6766 114.072C99.538 114.003 99.4313 113.936 99.3566 113.872C99.282 113.803 99.21 113.768 99.1406 113.768C99.082 113.768 99.0393 113.789 99.0126 113.832C98.9913 113.875 98.9806 113.931 98.9806 114H98.5726V111.704H99.0606C99.082 112.04 99.1193 112.333 99.1726 112.584C99.2313 112.829 99.3086 113.035 99.4046 113.2C99.5006 113.36 99.6206 113.48 99.7646 113.56C99.9086 113.64 100.079 113.68 100.277 113.68C100.485 113.68 100.65 113.621 100.773 113.504C100.895 113.381 100.983 113.229 101.037 113.048C101.095 112.861 101.125 112.677 101.125 112.496C101.125 112.213 101.085 111.944 101.005 111.688C100.93 111.432 100.807 111.171 100.637 110.904C100.466 110.637 100.239 110.352 99.9566 110.048C99.5993 109.659 99.29 109.256 99.0286 108.84C98.7726 108.424 98.6446 107.917 98.6446 107.32C98.6446 106.931 98.7166 106.605 98.8606 106.344C99.01 106.083 99.1993 105.888 99.4286 105.76C99.6633 105.627 99.9113 105.56 100.173 105.56C100.381 105.56 100.549 105.584 100.677 105.632C100.805 105.68 100.906 105.728 100.981 105.776C101.055 105.824 101.117 105.848 101.165 105.848C101.207 105.848 101.237 105.829 101.253 105.792C101.274 105.755 101.287 105.699 101.293 105.624H101.717V107.848H101.237C101.215 107.523 101.178 107.248 101.125 107.024C101.077 106.795 101.01 106.611 100.925 106.472C100.839 106.328 100.735 106.224 100.613 106.16C100.495 106.091 100.357 106.056 100.197 106.056C99.9353 106.056 99.7326 106.152 99.5886 106.344C99.45 106.536 99.3806 106.792 99.3806 107.112C99.3806 107.48 99.474 107.819 99.6606 108.128C99.8473 108.437 100.122 108.792 100.485 109.192C100.789 109.533 101.045 109.861 101.253 110.176C101.466 110.485 101.626 110.8 101.733 111.12C101.839 111.435 101.893 111.773 101.893 112.136C101.893 112.536 101.829 112.891 101.701 113.2C101.578 113.504 101.397 113.744 101.157 113.92C100.922 114.091 100.637 114.176 100.301 114.176ZM104.809 114.176C104.537 114.176 104.283 114.117 104.049 114C103.819 113.883 103.633 113.659 103.488 113.328C103.345 112.997 103.273 112.515 103.273 111.88V106.12H102.465V105.632H104.233V111.792C104.233 112.272 104.267 112.64 104.337 112.896C104.411 113.147 104.507 113.32 104.625 113.416C104.747 113.507 104.883 113.552 105.033 113.552C105.251 113.552 105.438 113.443 105.593 113.224C105.747 113 105.865 112.715 105.945 112.368C106.025 112.021 106.065 111.653 106.065 111.264V106.12H105.273V105.632H107.025V113.504H107.761V114H106.169L106.129 113.008C106.107 113.163 106.043 113.331 105.937 113.512C105.83 113.693 105.683 113.851 105.497 113.984C105.31 114.112 105.081 114.176 104.809 114.176ZM108.202 114V113.504H108.97V106.12H108.202V105.624H109.914V106.568C109.93 106.461 109.986 106.331 110.082 106.176C110.183 106.016 110.33 105.875 110.522 105.752C110.714 105.629 110.951 105.568 111.234 105.568C111.533 105.568 111.767 105.645 111.938 105.8C112.114 105.949 112.239 106.117 112.314 106.304C112.394 106.485 112.439 106.619 112.45 106.704C112.482 106.549 112.562 106.384 112.69 106.208C112.818 106.032 112.989 105.883 113.202 105.76C113.415 105.632 113.661 105.568 113.938 105.568C114.397 105.568 114.73 105.765 114.938 106.16C115.151 106.549 115.258 107.024 115.258 107.584V113.504H115.994V114H113.618V113.504H114.298V108.504C114.298 108.04 114.285 107.64 114.258 107.304C114.237 106.968 114.175 106.709 114.074 106.528C113.978 106.347 113.821 106.256 113.602 106.256C113.367 106.256 113.175 106.352 113.026 106.544C112.877 106.736 112.765 106.981 112.69 107.28C112.621 107.579 112.581 107.883 112.57 108.192V113.504H113.258V114H110.954V113.504H111.618V108.504C111.618 107.805 111.583 107.256 111.514 106.856C111.445 106.456 111.242 106.256 110.906 106.256C110.677 106.256 110.49 106.355 110.346 106.552C110.202 106.744 110.098 106.992 110.034 107.296C109.97 107.6 109.935 107.912 109.93 108.232V113.504H110.594V114H108.202Z" fill="black"/>
<path d="M42.44 183V182.504H43.168V172.296H42.44V171.8H44.704C45.2 171.8 45.6533 172 46.064 172.4C46.48 172.8 46.8133 173.408 47.064 174.224C47.3147 175.035 47.44 176.064 47.44 177.312C47.44 178.565 47.3147 179.616 47.064 180.464C46.8133 181.307 46.48 181.941 46.064 182.368C45.648 182.789 45.1947 183 44.704 183H42.44ZM44.128 182.504H44.528C44.8587 182.504 45.1707 182.328 45.464 181.976C45.7573 181.619 45.9947 181.059 46.176 180.296C46.3573 179.533 46.448 178.539 46.448 177.312C46.448 176.24 46.3653 175.331 46.2 174.584C46.0347 173.837 45.824 173.269 45.568 172.88C45.312 172.491 45.0453 172.296 44.768 172.296H44.128V182.504ZM50.3223 183.168C49.9489 183.168 49.6316 183.048 49.3703 182.808C49.1143 182.563 48.9089 182.235 48.7543 181.824C48.5996 181.408 48.4876 180.939 48.4183 180.416C48.3543 179.893 48.3223 179.352 48.3223 178.792C48.3223 178.093 48.3729 177.48 48.4743 176.952C48.5756 176.419 48.7169 175.976 48.8983 175.624C49.0849 175.267 49.2983 175 49.5383 174.824C49.7783 174.648 50.0396 174.56 50.3223 174.56C50.6476 174.56 50.9223 174.664 51.1463 174.872C51.3756 175.075 51.5596 175.349 51.6983 175.696C51.8423 176.037 51.9463 176.419 52.0103 176.84C52.0743 177.261 52.1063 177.688 52.1063 178.12C52.1063 178.232 52.1063 178.344 52.1063 178.456C52.1063 178.563 52.1036 178.667 52.0983 178.768H49.1943V178.272H51.1463C51.1463 177.637 51.1223 177.08 51.0743 176.6C51.0263 176.115 50.9409 175.736 50.8183 175.464C50.7009 175.192 50.5356 175.056 50.3223 175.056C50.1143 175.056 49.9329 175.189 49.7783 175.456C49.6289 175.723 49.5116 176.117 49.4263 176.64C49.3463 177.157 49.3063 177.797 49.3063 178.56C49.3063 179.109 49.3196 179.632 49.3463 180.128C49.3783 180.619 49.4316 181.053 49.5063 181.432C49.5863 181.805 49.6983 182.101 49.8423 182.32C49.9863 182.533 50.1756 182.64 50.4103 182.64C50.7303 182.64 50.9756 182.544 51.1463 182.352C51.3223 182.16 51.4423 181.973 51.5063 181.792L51.9383 182.024C51.8476 182.328 51.6556 182.595 51.3623 182.824C51.0689 183.053 50.7223 183.168 50.3223 183.168ZM54.7225 183.176C54.4505 183.176 54.2425 183.141 54.0985 183.072C53.9598 183.003 53.8532 182.936 53.7785 182.872C53.7038 182.803 53.6318 182.768 53.5625 182.768C53.5038 182.768 53.4612 182.789 53.4345 182.832C53.4132 182.875 53.4025 182.931 53.4025 183H52.9945V180.704H53.4825C53.5038 181.04 53.5412 181.333 53.5945 181.584C53.6532 181.829 53.7305 182.035 53.8265 182.2C53.9225 182.36 54.0425 182.48 54.1865 182.56C54.3305 182.64 54.5012 182.68 54.6985 182.68C54.9065 182.68 55.0718 182.621 55.1945 182.504C55.3172 182.381 55.4052 182.229 55.4585 182.048C55.5172 181.861 55.5465 181.677 55.5465 181.496C55.5465 181.213 55.5065 180.944 55.4265 180.688C55.3518 180.432 55.2292 180.171 55.0585 179.904C54.8878 179.637 54.6612 179.352 54.3785 179.048C54.0212 178.659 53.7118 178.256 53.4505 177.84C53.1945 177.424 53.0665 176.917 53.0665 176.32C53.0665 175.931 53.1385 175.605 53.2825 175.344C53.4318 175.083 53.6212 174.888 53.8505 174.76C54.0852 174.627 54.3332 174.56 54.5945 174.56C54.8025 174.56 54.9705 174.584 55.0985 174.632C55.2265 174.68 55.3278 174.728 55.4025 174.776C55.4772 174.824 55.5385 174.848 55.5865 174.848C55.6292 174.848 55.6585 174.829 55.6745 174.792C55.6958 174.755 55.7092 174.699 55.7145 174.624H56.1385V176.848H55.6585C55.6372 176.523 55.5998 176.248 55.5465 176.024C55.4985 175.795 55.4318 175.611 55.3465 175.472C55.2612 175.328 55.1572 175.224 55.0345 175.16C54.9172 175.091 54.7785 175.056 54.6185 175.056C54.3572 175.056 54.1545 175.152 54.0105 175.344C53.8718 175.536 53.8025 175.792 53.8025 176.112C53.8025 176.48 53.8958 176.819 54.0825 177.128C54.2692 177.437 54.5438 177.792 54.9065 178.192C55.2105 178.533 55.4665 178.861 55.6745 179.176C55.8878 179.485 56.0478 179.8 56.1545 180.12C56.2612 180.435 56.3145 180.773 56.3145 181.136C56.3145 181.536 56.2505 181.891 56.1225 182.2C55.9998 182.504 55.8185 182.744 55.5785 182.92C55.3438 183.091 55.0585 183.176 54.7225 183.176ZM57.0224 183V182.504H57.8704V175.12H57.0224V174.624H58.8304V182.504H59.6944V183H57.0224ZM58.3344 172.968C58.1157 172.968 57.929 172.893 57.7744 172.744C57.625 172.595 57.5504 172.413 57.5504 172.2C57.5504 171.987 57.625 171.805 57.7744 171.656C57.929 171.501 58.1157 171.424 58.3344 171.424C58.537 171.424 58.713 171.501 58.8624 171.656C59.0117 171.805 59.0864 171.987 59.0864 172.2C59.0864 172.413 59.0117 172.595 58.8624 172.744C58.713 172.893 58.537 172.968 58.3344 172.968ZM62.2883 186.984C61.8243 186.984 61.4243 186.885 61.0883 186.688C60.7576 186.496 60.5043 186.237 60.3283 185.912C60.1523 185.587 60.0643 185.235 60.0643 184.856C60.0643 184.525 60.1069 184.245 60.1923 184.016C60.2776 183.792 60.3816 183.605 60.5043 183.456C60.6323 183.307 60.7603 183.189 60.8883 183.104C61.0163 183.019 61.1203 182.96 61.2003 182.928C61.1523 182.917 61.0776 182.888 60.9763 182.84C60.8749 182.792 60.7683 182.723 60.6562 182.632C60.5496 182.536 60.4563 182.411 60.3763 182.256C60.2963 182.096 60.2563 181.907 60.2563 181.688C60.2563 181.469 60.2989 181.285 60.3843 181.136C60.4696 180.987 60.5709 180.872 60.6883 180.792C60.8056 180.707 60.9123 180.659 61.0083 180.648C61.0296 180.648 61.0536 180.648 61.0803 180.648C61.1123 180.643 61.1309 180.643 61.1363 180.648C61.0723 180.589 60.9949 180.491 60.9043 180.352C60.8189 180.213 60.7363 180.035 60.6562 179.816C60.5763 179.592 60.5096 179.325 60.4563 179.016C60.4083 178.701 60.3843 178.344 60.3843 177.944C60.3843 177.309 60.4349 176.776 60.5363 176.344C60.6429 175.912 60.7869 175.565 60.9683 175.304C61.1496 175.037 61.3549 174.848 61.5843 174.736C61.8189 174.619 62.0616 174.56 62.3123 174.56C62.7283 174.56 63.0696 174.693 63.3363 174.96C63.6083 175.227 63.8109 175.603 63.9443 176.088C64.0776 176.568 64.1443 177.136 64.1443 177.792C64.1443 178.395 64.0936 178.912 63.9923 179.344C63.8963 179.771 63.7603 180.117 63.5843 180.384C63.4136 180.651 63.2136 180.845 62.9843 180.968C62.7603 181.091 62.5229 181.152 62.2723 181.152C62.0323 181.152 61.8483 181.123 61.7203 181.064C61.5923 181.005 61.5176 180.971 61.4963 180.96C61.4909 180.955 61.4829 180.952 61.4723 180.952C61.4616 180.947 61.4483 180.944 61.4323 180.944C61.3309 180.944 61.2216 181.003 61.1043 181.12C60.9869 181.232 60.9283 181.381 60.9283 181.568C60.9283 181.824 61.0349 182.024 61.2483 182.168C61.4616 182.312 61.8536 182.424 62.4243 182.504C63.1443 182.6 63.6776 182.824 64.0243 183.176C64.3709 183.528 64.5443 184.04 64.5443 184.712C64.5443 185.101 64.4803 185.44 64.3523 185.728C64.2243 186.016 64.0509 186.251 63.8323 186.432C63.6189 186.619 63.3763 186.757 63.1043 186.848C62.8376 186.939 62.5656 186.984 62.2883 186.984ZM62.2883 186.512C62.6936 186.512 63.0189 186.363 63.2643 186.064C63.5149 185.765 63.6403 185.395 63.6403 184.952C63.6403 184.424 63.5603 184.04 63.4003 183.8C63.2456 183.56 62.9763 183.395 62.5923 183.304C62.4749 183.272 62.3629 183.24 62.2563 183.208C62.1496 183.181 62.0536 183.155 61.9683 183.128C61.8829 183.101 61.8163 183.083 61.7682 183.072C61.5869 183.173 61.4323 183.312 61.3043 183.488C61.1816 183.664 61.0883 183.864 61.0243 184.088C60.9603 184.312 60.9283 184.549 60.9283 184.8C60.9283 185.088 60.9763 185.36 61.0723 185.616C61.1736 185.877 61.3229 186.091 61.5203 186.256C61.7229 186.427 61.9789 186.512 62.2883 186.512ZM62.2723 180.648C62.4376 180.648 62.5869 180.576 62.7203 180.432C62.8536 180.288 62.9603 180.013 63.0403 179.608C63.1203 179.197 63.1603 178.603 63.1603 177.824C63.1603 177.072 63.1203 176.499 63.0403 176.104C62.9656 175.704 62.8616 175.432 62.7283 175.288C62.6003 175.139 62.4563 175.064 62.2963 175.064C62.1363 175.064 61.9843 175.139 61.8403 175.288C61.7016 175.432 61.5896 175.707 61.5043 176.112C61.4189 176.517 61.3763 177.104 61.3763 177.872C61.3763 178.635 61.4189 179.216 61.5043 179.616C61.5896 180.016 61.6989 180.288 61.8323 180.432C61.9709 180.576 62.1176 180.648 62.2723 180.648ZM62.9683 175.072C63.0163 174.773 63.1523 174.536 63.3763 174.36C63.6003 174.184 63.8323 174.096 64.0723 174.096C64.2803 174.096 64.4269 174.144 64.5123 174.24C64.5976 174.331 64.6403 174.453 64.6403 174.608C64.6403 174.741 64.6029 174.851 64.5283 174.936C64.4536 175.021 64.3523 175.064 64.2243 175.064C64.1176 175.064 64.0376 175.04 63.9843 174.992C63.9363 174.939 63.8936 174.888 63.8563 174.84C63.8189 174.787 63.7576 174.76 63.6723 174.76C63.5976 174.76 63.5336 174.789 63.4803 174.848C63.4269 174.907 63.4003 174.989 63.4003 175.096L62.9683 175.072ZM65.1783 183V182.504H65.9943V175.12H65.1783V174.624H66.9303V175.52C66.9676 175.381 67.0449 175.237 67.1623 175.088C67.2796 174.939 67.4343 174.813 67.6263 174.712C67.8183 174.611 68.0369 174.56 68.2823 174.56C68.5063 174.56 68.7276 174.619 68.9462 174.736C69.1703 174.853 69.3569 175.083 69.5063 175.424C69.6556 175.765 69.7303 176.277 69.7303 176.96V182.504H70.5303V183H68.0583V182.504H68.7703V177.12C68.7703 176.437 68.7036 175.952 68.5703 175.664C68.4423 175.371 68.2396 175.224 67.9623 175.224C67.8183 175.224 67.6849 175.277 67.5623 175.384C67.4396 175.485 67.3329 175.621 67.2423 175.792C67.1516 175.963 67.0796 176.149 67.0263 176.352C66.9783 176.555 66.9543 176.752 66.9543 176.944V182.504H67.6583V183H65.1783ZM73.166 183.168C72.7927 183.168 72.4753 183.048 72.214 182.808C71.958 182.563 71.7527 182.235 71.598 181.824C71.4433 181.408 71.3313 180.939 71.262 180.416C71.198 179.893 71.166 179.352 71.166 178.792C71.166 178.093 71.2167 177.48 71.318 176.952C71.4193 176.419 71.5607 175.976 71.742 175.624C71.9287 175.267 72.142 175 72.382 174.824C72.622 174.648 72.8833 174.56 73.166 174.56C73.4913 174.56 73.766 174.664 73.99 174.872C74.2193 175.075 74.4033 175.349 74.542 175.696C74.686 176.037 74.79 176.419 74.854 176.84C74.918 177.261 74.95 177.688 74.95 178.12C74.95 178.232 74.95 178.344 74.95 178.456C74.95 178.563 74.9473 178.667 74.942 178.768H72.038V178.272H73.99C73.99 177.637 73.966 177.08 73.918 176.6C73.87 176.115 73.7847 175.736 73.662 175.464C73.5447 175.192 73.3793 175.056 73.166 175.056C72.958 175.056 72.7767 175.189 72.622 175.456C72.4727 175.723 72.3553 176.117 72.27 176.64C72.19 177.157 72.15 177.797 72.15 178.56C72.15 179.109 72.1633 179.632 72.19 180.128C72.222 180.619 72.2753 181.053 72.35 181.432C72.43 181.805 72.542 182.101 72.686 182.32C72.83 182.533 73.0193 182.64 73.254 182.64C73.574 182.64 73.8193 182.544 73.99 182.352C74.166 182.16 74.286 181.973 74.35 181.792L74.782 182.024C74.6913 182.328 74.4993 182.595 74.206 182.824C73.9127 183.053 73.566 183.168 73.166 183.168ZM75.6063 183V182.504H76.4223V175.12H75.6063V174.624H77.3183L77.3583 175.448C77.3689 175.389 77.4196 175.288 77.5103 175.144C77.6063 175 77.7369 174.867 77.9023 174.744C78.0729 174.621 78.2756 174.56 78.5103 174.56C78.7663 174.56 78.9743 174.651 79.1343 174.832C79.2943 175.008 79.4116 175.251 79.4863 175.56C79.5609 175.864 79.5983 176.205 79.5983 176.584C79.5983 176.835 79.5583 177.024 79.4783 177.152C79.3983 177.275 79.2836 177.336 79.1343 177.336C79.0009 177.336 78.8916 177.285 78.8063 177.184C78.7263 177.077 78.6863 176.925 78.6863 176.728C78.6863 176.611 78.7049 176.515 78.7423 176.44C78.7796 176.365 78.8143 176.285 78.8463 176.2C78.8783 176.109 78.8943 175.992 78.8943 175.848C78.8943 175.592 78.8489 175.408 78.7583 175.296C78.6676 175.184 78.5476 175.128 78.3983 175.128C78.1956 175.128 78.0169 175.219 77.8623 175.4C77.7076 175.576 77.5876 175.803 77.5023 176.08C77.4223 176.357 77.3823 176.637 77.3823 176.92V182.504H78.2063V183H75.6063ZM84.5559 183.16C84.2092 183.16 83.8999 183.019 83.6279 182.736C83.3559 182.453 83.1399 181.997 82.9799 181.368C82.8252 180.739 82.7479 179.901 82.7479 178.856C82.7479 177.821 82.8252 176.992 82.9799 176.368C83.1399 175.739 83.3505 175.283 83.6119 175C83.8732 174.712 84.1665 174.568 84.4919 174.568C84.7479 174.568 84.9532 174.624 85.1079 174.736C85.2625 174.843 85.3799 174.971 85.4599 175.12C85.5399 175.264 85.5932 175.395 85.6199 175.512V171.504H84.7239V171H86.5879V182.504H87.4679V183H85.7239L85.6599 181.976C85.6492 182.115 85.5985 182.277 85.5079 182.464C85.4225 182.651 85.3025 182.813 85.1479 182.952C84.9932 183.091 84.7959 183.16 84.5559 183.16ZM84.7159 182.504C84.8919 182.504 85.0412 182.395 85.1639 182.176C85.2919 181.957 85.3959 181.688 85.4759 181.368C85.5559 181.043 85.6039 180.723 85.6199 180.408V176.912C85.5932 176.645 85.5345 176.389 85.4439 176.144C85.3585 175.899 85.2492 175.696 85.1159 175.536C84.9825 175.376 84.8359 175.296 84.6759 175.296C84.4999 175.296 84.3505 175.389 84.2279 175.576C84.1105 175.757 84.0145 176.013 83.9399 176.344C83.8705 176.669 83.8199 177.051 83.7879 177.488C83.7559 177.92 83.7399 178.387 83.7399 178.888C83.7399 179.48 83.7585 180.003 83.7959 180.456C83.8332 180.904 83.8892 181.28 83.9639 181.584C84.0439 181.888 84.1452 182.117 84.2679 182.272C84.3905 182.427 84.5399 182.504 84.7159 182.504ZM89.9785 183.168C89.6052 183.168 89.2878 183.048 89.0265 182.808C88.7705 182.563 88.5652 182.235 88.4105 181.824C88.2558 181.408 88.1438 180.939 88.0745 180.416C88.0105 179.893 87.9785 179.352 87.9785 178.792C87.9785 178.093 88.0292 177.48 88.1305 176.952C88.2318 176.419 88.3732 175.976 88.5545 175.624C88.7412 175.267 88.9545 175 89.1945 174.824C89.4345 174.648 89.6958 174.56 89.9785 174.56C90.3038 174.56 90.5785 174.664 90.8025 174.872C91.0318 175.075 91.2158 175.349 91.3545 175.696C91.4985 176.037 91.6025 176.419 91.6665 176.84C91.7305 177.261 91.7625 177.688 91.7625 178.12C91.7625 178.232 91.7625 178.344 91.7625 178.456C91.7625 178.563 91.7598 178.667 91.7545 178.768H88.8505V178.272H90.8025C90.8025 177.637 90.7785 177.08 90.7305 176.6C90.6825 176.115 90.5972 175.736 90.4745 175.464C90.3572 175.192 90.1918 175.056 89.9785 175.056C89.7705 175.056 89.5892 175.189 89.4345 175.456C89.2852 175.723 89.1678 176.117 89.0825 176.64C89.0025 177.157 88.9625 177.797 88.9625 178.56C88.9625 179.109 88.9758 179.632 89.0025 180.128C89.0345 180.619 89.0878 181.053 89.1625 181.432C89.2425 181.805 89.3545 182.101 89.4985 182.32C89.6425 182.533 89.8318 182.64 90.0665 182.64C90.3865 182.64 90.6318 182.544 90.8025 182.352C90.9785 182.16 91.0985 181.973 91.1625 181.792L91.5945 182.024C91.5038 182.328 91.3118 182.595 91.0185 182.824C90.7252 183.053 90.3785 183.168 89.9785 183.168ZM96.6913 183.176C96.4193 183.176 96.2113 183.141 96.0673 183.072C95.9286 183.003 95.8219 182.936 95.7473 182.872C95.6726 182.803 95.6006 182.768 95.5312 182.768C95.4726 182.768 95.4299 182.789 95.4033 182.832C95.3819 182.875 95.3713 182.931 95.3713 183H94.9633V180.704H95.4513C95.4726 181.04 95.5099 181.333 95.5633 181.584C95.6219 181.829 95.6993 182.035 95.7953 182.2C95.8913 182.36 96.0113 182.48 96.1553 182.56C96.2993 182.64 96.4699 182.68 96.6673 182.68C96.8753 182.68 97.0406 182.621 97.1633 182.504C97.2859 182.381 97.3739 182.229 97.4273 182.048C97.4859 181.861 97.5153 181.677 97.5153 181.496C97.5153 181.213 97.4753 180.944 97.3953 180.688C97.3206 180.432 97.1979 180.171 97.0273 179.904C96.8566 179.637 96.6299 179.352 96.3473 179.048C95.9899 178.659 95.6806 178.256 95.4193 177.84C95.1633 177.424 95.0353 176.917 95.0353 176.32C95.0353 175.931 95.1073 175.605 95.2513 175.344C95.4006 175.083 95.5899 174.888 95.8193 174.76C96.0539 174.627 96.3019 174.56 96.5633 174.56C96.7713 174.56 96.9393 174.584 97.0673 174.632C97.1953 174.68 97.2966 174.728 97.3713 174.776C97.4459 174.824 97.5073 174.848 97.5553 174.848C97.5979 174.848 97.6273 174.829 97.6433 174.792C97.6646 174.755 97.6779 174.699 97.6833 174.624H98.1073V176.848H97.6273C97.6059 176.523 97.5686 176.248 97.5153 176.024C97.4673 175.795 97.4006 175.611 97.3153 175.472C97.2299 175.328 97.1259 175.224 97.0033 175.16C96.8859 175.091 96.7473 175.056 96.5872 175.056C96.3259 175.056 96.1233 175.152 95.9793 175.344C95.8406 175.536 95.7713 175.792 95.7713 176.112C95.7713 176.48 95.8646 176.819 96.0513 177.128C96.2379 177.437 96.5126 177.792 96.8753 178.192C97.1793 178.533 97.4353 178.861 97.6433 179.176C97.8566 179.485 98.0166 179.8 98.1233 180.12C98.2299 180.435 98.2833 180.773 98.2833 181.136C98.2833 181.536 98.2193 181.891 98.0913 182.2C97.9686 182.504 97.7873 182.744 97.5473 182.92C97.3126 183.091 97.0273 183.176 96.6913 183.176ZM101.175 183.176C100.887 183.176 100.618 183.08 100.367 182.888C100.116 182.691 99.8978 182.405 99.7111 182.032C99.5245 181.653 99.3778 181.192 99.2711 180.648C99.1698 180.104 99.1191 179.483 99.1191 178.784C99.1191 178.021 99.1725 177.373 99.2791 176.84C99.3911 176.301 99.5431 175.864 99.7351 175.528C99.9271 175.192 100.146 174.947 100.391 174.792C100.642 174.637 100.903 174.56 101.175 174.56C101.442 174.56 101.698 174.637 101.943 174.792C102.188 174.947 102.407 175.192 102.599 175.528C102.796 175.864 102.951 176.301 103.063 176.84C103.18 177.373 103.239 178.021 103.239 178.784C103.239 179.483 103.186 180.104 103.079 180.648C102.972 181.192 102.823 181.653 102.631 182.032C102.444 182.405 102.226 182.691 101.975 182.888C101.724 183.08 101.458 183.176 101.175 183.176ZM101.175 182.664C101.479 182.664 101.732 182.347 101.935 181.712C102.138 181.077 102.239 180.101 102.239 178.784C102.239 177.483 102.138 176.539 101.935 175.952C101.732 175.36 101.479 175.064 101.175 175.064C100.86 175.064 100.602 175.36 100.399 175.952C100.202 176.539 100.103 177.483 100.103 178.784C100.103 180.101 100.202 181.077 100.399 181.712C100.602 182.347 100.86 182.664 101.175 182.664ZM106.5 183.16C106.254 183.16 106.054 183.091 105.9 182.952C105.75 182.813 105.638 182.651 105.564 182.464C105.489 182.277 105.444 182.115 105.428 181.976L105.372 183H103.66V182.504H104.508V171.496H103.66V171H105.476V175.576C105.502 175.475 105.556 175.344 105.636 175.184C105.716 175.024 105.833 174.883 105.988 174.76C106.148 174.632 106.35 174.568 106.596 174.568C106.937 174.568 107.236 174.712 107.492 175C107.753 175.283 107.956 175.739 108.1 176.368C108.249 176.992 108.324 177.821 108.324 178.856C108.324 179.901 108.244 180.739 108.084 181.368C107.929 181.997 107.713 182.453 107.436 182.736C107.164 183.019 106.852 183.16 106.5 183.16ZM106.372 182.504C106.542 182.504 106.689 182.427 106.812 182.272C106.934 182.117 107.033 181.888 107.108 181.584C107.188 181.28 107.246 180.904 107.284 180.456C107.321 180.008 107.34 179.485 107.34 178.888C107.34 178.36 107.324 177.877 107.292 177.44C107.26 177.003 107.206 176.624 107.132 176.304C107.057 175.984 106.961 175.739 106.844 175.568C106.726 175.392 106.582 175.304 106.412 175.304C106.241 175.304 106.089 175.392 105.956 175.568C105.822 175.739 105.716 175.949 105.636 176.2C105.556 176.445 105.502 176.683 105.476 176.912V180.272C105.492 180.597 105.534 180.933 105.604 181.28C105.678 181.627 105.78 181.917 105.908 182.152C106.041 182.387 106.196 182.504 106.372 182.504ZM109.059 183V182.504H109.875V175.12H109.059V174.624H110.771L110.811 175.448C110.822 175.389 110.873 175.288 110.963 175.144C111.059 175 111.19 174.867 111.355 174.744C111.526 174.621 111.729 174.56 111.963 174.56C112.219 174.56 112.427 174.651 112.587 174.832C112.747 175.008 112.865 175.251 112.939 175.56C113.014 175.864 113.051 176.205 113.051 176.584C113.051 176.835 113.011 177.024 112.931 177.152C112.851 177.275 112.737 177.336 112.587 177.336C112.454 177.336 112.345 177.285 112.259 177.184C112.179 177.077 112.139 176.925 112.139 176.728C112.139 176.611 112.158 176.515 112.195 176.44C112.233 176.365 112.267 176.285 112.299 176.2C112.331 176.109 112.347 175.992 112.347 175.848C112.347 175.592 112.302 175.408 112.211 175.296C112.121 175.184 112.001 175.128 111.851 175.128C111.649 175.128 111.47 175.219 111.315 175.4C111.161 175.576 111.041 175.803 110.955 176.08C110.875 176.357 110.835 176.637 110.835 176.92V182.504H111.659V183H109.059ZM115.259 183.16C114.95 183.16 114.672 183.085 114.427 182.936C114.187 182.781 113.998 182.549 113.859 182.24C113.72 181.931 113.651 181.549 113.651 181.096C113.651 180.605 113.744 180.197 113.931 179.872C114.118 179.547 114.347 179.272 114.619 179.048C114.896 178.819 115.171 178.611 115.443 178.424C115.72 178.237 115.952 178.045 116.139 177.848C116.326 177.645 116.419 177.403 116.419 177.12C116.419 176.715 116.387 176.36 116.323 176.056C116.264 175.752 116.166 175.517 116.027 175.352C115.888 175.181 115.699 175.096 115.459 175.096C115.187 175.096 114.963 175.189 114.787 175.376C114.611 175.563 114.523 175.773 114.523 176.008C114.523 176.12 114.536 176.211 114.563 176.28C114.595 176.349 114.624 176.419 114.651 176.488C114.683 176.552 114.699 176.643 114.699 176.76C114.699 176.931 114.659 177.069 114.579 177.176C114.504 177.283 114.392 177.336 114.243 177.336C114.099 177.336 113.987 177.272 113.907 177.144C113.832 177.016 113.795 176.843 113.795 176.624C113.795 176.235 113.87 175.885 114.019 175.576C114.168 175.261 114.376 175.013 114.643 174.832C114.915 174.651 115.23 174.56 115.587 174.56C115.95 174.56 116.264 174.645 116.531 174.816C116.798 174.987 117.006 175.261 117.155 175.64C117.304 176.013 117.379 176.509 117.379 177.128V181.992C117.379 182.205 117.403 182.349 117.451 182.424C117.499 182.499 117.571 182.536 117.667 182.536C117.752 182.536 117.822 182.52 117.875 182.488C117.928 182.456 117.968 182.424 117.995 182.392L118.251 182.816C118.187 182.885 118.078 182.949 117.923 183.008C117.774 183.067 117.603 183.096 117.411 183.096C117.23 183.096 117.072 183.064 116.939 183C116.811 182.936 116.71 182.848 116.635 182.736C116.566 182.619 116.526 182.485 116.515 182.336C116.483 182.432 116.419 182.547 116.323 182.68C116.232 182.808 116.102 182.92 115.931 183.016C115.76 183.112 115.536 183.16 115.259 183.16ZM115.475 182.552C115.683 182.552 115.856 182.475 115.995 182.32C116.134 182.16 116.238 181.973 116.307 181.76C116.382 181.547 116.419 181.357 116.419 181.192V178.144C116.403 178.293 116.304 178.443 116.123 178.592C115.947 178.741 115.747 178.917 115.523 179.12C115.299 179.317 115.099 179.568 114.923 179.872C114.752 180.171 114.667 180.549 114.667 181.008C114.667 181.515 114.736 181.899 114.875 182.16C115.014 182.421 115.214 182.552 115.475 182.552ZM118.475 183V182.504H119.291V175.12H118.475V174.624H120.227V175.52C120.264 175.381 120.342 175.237 120.459 175.088C120.576 174.939 120.731 174.813 120.923 174.712C121.115 174.611 121.334 174.56 121.579 174.56C121.803 174.56 122.024 174.619 122.243 174.736C122.467 174.853 122.654 175.083 122.803 175.424C122.952 175.765 123.027 176.277 123.027 176.96V182.504H123.827V183H121.355V182.504H122.067V177.12C122.067 176.437 122 175.952 121.867 175.664C121.739 175.371 121.536 175.224 121.259 175.224C121.115 175.224 120.982 175.277 120.859 175.384C120.736 175.485 120.63 175.621 120.539 175.792C120.448 175.963 120.376 176.149 120.323 176.352C120.275 176.555 120.251 176.752 120.251 176.944V182.504H120.955V183H118.475ZM126.671 183.16C126.298 183.16 125.972 183.035 125.695 182.784C125.418 182.533 125.186 182.197 124.999 181.776C124.812 181.349 124.674 180.875 124.583 180.352C124.492 179.824 124.447 179.285 124.447 178.736C124.447 178.048 124.511 177.445 124.639 176.928C124.772 176.405 124.946 175.971 125.159 175.624C125.378 175.272 125.62 175.008 125.887 174.832C126.154 174.651 126.418 174.56 126.679 174.56C127.02 174.56 127.306 174.661 127.535 174.864C127.764 175.067 127.935 175.328 128.047 175.648C128.164 175.968 128.223 176.301 128.223 176.648C128.223 176.867 128.186 177.037 128.111 177.16C128.036 177.277 127.927 177.336 127.783 177.336C127.639 177.336 127.527 177.283 127.447 177.176C127.367 177.069 127.327 176.931 127.327 176.76C127.327 176.648 127.343 176.56 127.375 176.496C127.407 176.427 127.439 176.357 127.471 176.288C127.503 176.213 127.519 176.115 127.519 175.992C127.519 175.709 127.444 175.485 127.295 175.32C127.146 175.155 126.954 175.072 126.719 175.072C126.495 175.072 126.303 175.179 126.143 175.392C125.983 175.6 125.852 175.877 125.751 176.224C125.65 176.571 125.575 176.96 125.527 177.392C125.484 177.819 125.463 178.251 125.463 178.688C125.463 179.125 125.482 179.576 125.519 180.04C125.562 180.499 125.631 180.925 125.727 181.32C125.828 181.709 125.964 182.027 126.135 182.272C126.306 182.512 126.522 182.632 126.783 182.632C127.066 182.632 127.284 182.557 127.439 182.408C127.599 182.259 127.719 182.064 127.799 181.824L128.175 182.128C128.084 182.357 127.916 182.587 127.671 182.816C127.431 183.045 127.098 183.16 126.671 183.16ZM131.072 183.168C130.699 183.168 130.382 183.048 130.12 182.808C129.864 182.563 129.659 182.235 129.504 181.824C129.35 181.408 129.238 180.939 129.168 180.416C129.104 179.893 129.072 179.352 129.072 178.792C129.072 178.093 129.123 177.48 129.224 176.952C129.326 176.419 129.467 175.976 129.648 175.624C129.835 175.267 130.048 175 130.288 174.824C130.528 174.648 130.79 174.56 131.072 174.56C131.398 174.56 131.672 174.664 131.896 174.872C132.126 175.075 132.31 175.349 132.448 175.696C132.592 176.037 132.696 176.419 132.76 176.84C132.824 177.261 132.856 177.688 132.856 178.12C132.856 178.232 132.856 178.344 132.856 178.456C132.856 178.563 132.854 178.667 132.848 178.768H129.944V178.272H131.896C131.896 177.637 131.872 177.08 131.824 176.6C131.776 176.115 131.691 175.736 131.568 175.464C131.451 175.192 131.286 175.056 131.072 175.056C130.864 175.056 130.683 175.189 130.528 175.456C130.379 175.723 130.262 176.117 130.176 176.64C130.096 177.157 130.056 177.797 130.056 178.56C130.056 179.109 130.07 179.632 130.096 180.128C130.128 180.619 130.182 181.053 130.256 181.432C130.336 181.805 130.448 182.101 130.592 182.32C130.736 182.533 130.926 182.64 131.16 182.64C131.48 182.64 131.726 182.544 131.896 182.352C132.072 182.16 132.192 181.973 132.256 181.792L132.688 182.024C132.598 182.328 132.406 182.595 132.112 182.824C131.819 183.053 131.472 183.168 131.072 183.168ZM133.477 183V182.504H134.221V171.496H133.477V171H135.173V182.504H135.925V183H133.477ZM136.538 183V182.504H137.346V171.496H136.538V171H138.306V175.568C138.322 175.472 138.388 175.344 138.506 175.184C138.623 175.024 138.783 174.877 138.986 174.744C139.194 174.611 139.431 174.544 139.698 174.544C139.948 174.544 140.188 174.613 140.418 174.752C140.647 174.885 140.834 175.133 140.978 175.496C141.127 175.859 141.202 176.387 141.202 177.08V182.504H142.018V183H139.594V182.504H140.242V177.256C140.242 176.525 140.175 176.008 140.042 175.704C139.914 175.4 139.703 175.248 139.41 175.248C139.218 175.248 139.039 175.333 138.874 175.504C138.708 175.669 138.575 175.883 138.474 176.144C138.372 176.405 138.316 176.675 138.306 176.952V182.504H138.97V183H136.538ZM144.29 183.16C143.981 183.16 143.704 183.085 143.458 182.936C143.218 182.781 143.029 182.549 142.89 182.24C142.752 181.931 142.682 181.549 142.682 181.096C142.682 180.605 142.776 180.197 142.962 179.872C143.149 179.547 143.378 179.272 143.65 179.048C143.928 178.819 144.202 178.611 144.474 178.424C144.752 178.237 144.984 178.045 145.17 177.848C145.357 177.645 145.45 177.403 145.45 177.12C145.45 176.715 145.418 176.36 145.354 176.056C145.296 175.752 145.197 175.517 145.058 175.352C144.92 175.181 144.73 175.096 144.49 175.096C144.218 175.096 143.994 175.189 143.818 175.376C143.642 175.563 143.554 175.773 143.554 176.008C143.554 176.12 143.568 176.211 143.594 176.28C143.626 176.349 143.656 176.419 143.682 176.488C143.714 176.552 143.73 176.643 143.73 176.76C143.73 176.931 143.69 177.069 143.61 177.176C143.536 177.283 143.424 177.336 143.274 177.336C143.13 177.336 143.018 177.272 142.938 177.144C142.864 177.016 142.826 176.843 142.826 176.624C142.826 176.235 142.901 175.885 143.05 175.576C143.2 175.261 143.408 175.013 143.674 174.832C143.946 174.651 144.261 174.56 144.618 174.56C144.981 174.56 145.296 174.645 145.562 174.816C145.829 174.987 146.037 175.261 146.186 175.64C146.336 176.013 146.41 176.509 146.41 177.128V181.992C146.41 182.205 146.434 182.349 146.482 182.424C146.53 182.499 146.602 182.536 146.698 182.536C146.784 182.536 146.853 182.52 146.906 182.488C146.96 182.456 147 182.424 147.026 182.392L147.282 182.816C147.218 182.885 147.109 182.949 146.954 183.008C146.805 183.067 146.634 183.096 146.442 183.096C146.261 183.096 146.104 183.064 145.97 183C145.842 182.936 145.741 182.848 145.666 182.736C145.597 182.619 145.557 182.485 145.546 182.336C145.514 182.432 145.45 182.547 145.354 182.68C145.264 182.808 145.133 182.92 144.962 183.016C144.792 183.112 144.568 183.16 144.29 183.16ZM144.506 182.552C144.714 182.552 144.888 182.475 145.026 182.32C145.165 182.16 145.269 181.973 145.338 181.76C145.413 181.547 145.45 181.357 145.45 181.192V178.144C145.434 178.293 145.336 178.443 145.154 178.592C144.978 178.741 144.778 178.917 144.554 179.12C144.33 179.317 144.13 179.568 143.954 179.872C143.784 180.171 143.698 180.549 143.698 181.008C143.698 181.515 143.768 181.899 143.906 182.16C144.045 182.421 144.245 182.552 144.506 182.552ZM149.504 183.176C149.232 183.176 149.024 183.141 148.88 183.072C148.741 183.003 148.634 182.936 148.56 182.872C148.485 182.803 148.413 182.768 148.344 182.768C148.285 182.768 148.242 182.789 148.216 182.832C148.194 182.875 148.184 182.931 148.184 183H147.776V180.704H148.264C148.285 181.04 148.322 181.333 148.376 181.584C148.434 181.829 148.512 182.035 148.608 182.2C148.704 182.36 148.824 182.48 148.968 182.56C149.112 182.64 149.282 182.68 149.48 182.68C149.688 182.68 149.853 182.621 149.976 182.504C150.098 182.381 150.186 182.229 150.24 182.048C150.298 181.861 150.328 181.677 150.328 181.496C150.328 181.213 150.288 180.944 150.208 180.688C150.133 180.432 150.01 180.171 149.84 179.904C149.669 179.637 149.442 179.352 149.16 179.048C148.802 178.659 148.493 178.256 148.232 177.84C147.976 177.424 147.848 176.917 147.848 176.32C147.848 175.931 147.92 175.605 148.064 175.344C148.213 175.083 148.402 174.888 148.632 174.76C148.866 174.627 149.114 174.56 149.376 174.56C149.584 174.56 149.752 174.584 149.88 174.632C150.008 174.68 150.109 174.728 150.184 174.776C150.258 174.824 150.32 174.848 150.368 174.848C150.41 174.848 150.44 174.829 150.456 174.792C150.477 174.755 150.49 174.699 150.496 174.624H150.92V176.848H150.44C150.418 176.523 150.381 176.248 150.328 176.024C150.28 175.795 150.213 175.611 150.128 175.472C150.042 175.328 149.938 175.224 149.816 175.16C149.698 175.091 149.56 175.056 149.4 175.056C149.138 175.056 148.936 175.152 148.792 175.344C148.653 175.536 148.584 175.792 148.584 176.112C148.584 176.48 148.677 176.819 148.864 177.128C149.05 177.437 149.325 177.792 149.688 178.192C149.992 178.533 150.248 178.861 150.456 179.176C150.669 179.485 150.829 179.8 150.936 180.12C151.042 180.435 151.096 180.773 151.096 181.136C151.096 181.536 151.032 181.891 150.904 182.2C150.781 182.504 150.6 182.744 150.36 182.92C150.125 183.091 149.84 183.176 149.504 183.176Z" fill="black"/>
<line x1="20.5" y1="10" x2="20.5" y2="187" stroke="black"/>
<line x1="179.5" y1="10" x2="179.5" y2="187" stroke="black"/>
</svg>
